/* XPM */
static char *eccc5fc8f138423798af1bfc8dbfaa10pKnEQnFNugMgSEMS[] = {
/* columns rows colors chars-per-pixel */
"64 64 45 1 ",
"  c None",
". c #212125",
"X c #2E2E2F",
"o c #3C3B39",
"O c #4A4843",
"+ c #58554D",
"@ c #666257",
"# c #746F61",
"$ c #827C6B",
"% c #C38000",
"& c #C48000",
"* c #C68200",
"= c #CD9018",
"- c #D49E31",
"; c #FFCC00",
": c #FFCE0C",
"> c #FFD018",
", c #FFD325",
"< c #FFD531",
"1 c #FFD83D",
"2 c #908A75",
"3 c #9D977F",
"4 c #DBAC4A",
"5 c #DEB356",
"6 c #E2BA63",
"7 c #FFDA4A",
"8 c #FFDD56",
"9 c #E6C16F",
"0 c #FFDF63",
"q c #E9C87B",
"w c #FFE16F",
"e c #FFE47B",
"r c #EDCF88",
"t c #F0D694",
"y c #FFE688",
"u c #FFE994",
"i c #D5CBA7",
"p c #E3D8B1",
"a c #FFEBA0",
"s c #F7E4AD",
"d c #FFEEAD",
"f c #F1E5BB",
"g c #FBEBB9",
"h c #FFF0B9",
"j c #FFF3C6",
/* pixels */
"      *%%&*********************************************%%&      ",
"    %******************************************************%    ",
"  %**=9tttjjjjjjjjjjjjjjjjjjjjjjjjjjjjjjjjjjjjjjjjjjjjttr5=**%  ",
"  **9jjjjjjjjjjjjjjjjjjjjjjjjjjjjjjjjjjjjjjjjjjjjjjjjjjjjjj6**  ",
" %*4jju7<<;;;;;;;;;;;;;;;;;;;;;;;;;;;;;;;;;;;;;;;;;;;;<<7ujj9*% ",
" *=jj0;;;;;;;;;;;;;;;;;;;;;;;;;;;;;;;;;;;;;;;;;;;;;;;;;;;;7jj-* ",
"**qju;;;;;;;;;;;;;;;;;;;;;;;;;;;;;;;;;;;;;;;;;;;;;;;;;;;;;;ejq**",
"%*gj1;;;;<<<;;;;;;;;;;;;;;;;;;;;;;;;;;;;;;;;;;;;;;;;<<<;;;;,js**",
"**jj,;;;yjjjd;;;;;;;;;;;;;;;;;;;;;;;;;;;;;;;;;;;;;;yjjjd;;;;jj**",
"**jj:;;7jjjjj7;;;;;;;;;;;;;;;;;;;;;;;;;;;;;;;;;;;;7jjjjj7;;;jj**",
"**jj;;;wjjjjj0;;;;;;;;;;;;;;;;;;;;;;;;;;;;;;;;;;;;wjjjjj0;;;jj**",
"**jj;;;7jjjjj7;;;;;;;;;;;;;;;;;;;;;;;;;;;;;;;;;;;;7jjjjj7;;;jj**",
"**jj;;;;ujjjg:;;;;;;;;;;;;;;;;;;;;;;;;;;;;;;;;;;;;;ajjjg:;;;jj**",
"**jj;;;;:8w8>;;;;;;;;;;;;;;;;;;;;;;;;;;;;;;;;;;;;;;:808>;;;;jj**",
"**jj;;;;;;;;;;;;;;;;;;;;;;;;;;;;;;;;;;;;;;;;;;;;;;;;;;;;;;;;jj**",
"**jj;;;;;;;;;;;;;;;;;;;;;;;;;;;;;;;;;;;;;;;;;;;;;;;;;;;;;;;;jj**",
"**jj;;;;;;;;;;;;;;;;;;;;;;;;;;;;;;;;;;;;;;;;;;;;;;;;;;;;;;;;jj**",
"**jj;;;;;;;;;;;;;;;;;;;;;;;;;;;;;;;;;;;;;;;;;;;;;;;;;;;;;;;;jj**",
"**jj;;;;;;;;;;;;;;;;;;;;;;;;;;;;;;;;;;;;;;;;;;;;;;;;;;;;;;;;jj**",
"**jj;;;;;;;;;;;;;;;;;;;;;;;;;;;;;;;;;;;;;;;;;;;;;;;;;;;;;;;;jj**",
"**jj;;;;;;;;;;;;;;;;;;;;;;;;;;;;;;;;;;;;;;;;;;;;;;;;;;;;;;;;jj**",
"**jj;;;;;;;;;;;;;;;;;;;;;;;;;;;;;;;;;;;;;;;;;;;;;;;;;;;;;;;;jj**",
"**jj;;;;;;;;;;;;;;;;;;;;;;;;,euuuue,;;;;;;;;;;;;;;;;;;;;;;;;jj**",
"**jj;;;;;;;;;;;;;;;;;;;;;;:yjjjjjjjju,;;;;;;;;;;;;;;;;;;;;;;jj**",
"**jj;;;;;;;;;;;;;;;;;;;;;;yjf3++++3fjd:;;;;;;;;;;;;;;;;;;;;;jj**",
"**jj;;;;;;;;;;;;;;;;;;;;;wjpX......Xpjy;;;;;;;;;;;;;;;;;;;;;jj**",
"**jj;;;;;;;;;;;;;;;;;;;;>jfO........Ofj<;;;;;;;;;;;;;;;;;;;;jj**",
"**jj;;;;;;;;;;;;;;;;;;;;ej2..........2je;;;;;;;;;;;;;;;;;;;;jj**",
"**jj;;;;;;;;;;;;;;;;;;;;djo..........ojh;;;;;;;;;;;;;;;;;;;;jj**",
"**jj;;;;;;;;;;;;;;;;;;;;jj............jj;;;;;;;;;;;;;;;;;;;;jj**",
"**jj;;;;;;;;;;;;;;;;;;;;jj............jj;;;;;;;;;;;;;;;;;;;;jj**",
"**jj;;;;;;;;;;;;;;;;;;;;djo..........ojd;;;;;;;;;;;;;;;;;;;;jj**",
"**jj;;;;;;;;;;;;;;;;;;;;yj2..........2jy;;;;;;;;;;;;;;;;;;;;jj**",
"**jj;;;;;;;;;;;;;;;;;;;;<jfX........Xfj<;;;;;;;;;;;;;;;;;;;;jj**",
"**jj;;;;;;;;;;;;;;;;;;;;;yjio......oijy;;;;;;;;;;;;;;;;;;;;;jj**",
"**jj;;;;;;;;;;;;;;;;;;;;;:ajf......fjd:;;;;;;;;;;;;;;;;;;;;;jj**",
"**jj;;;;;;;;;;;;;;;;;;;;;;:jj......jj>;;;;;;;;;;;;;;;;;;;;;;jj**",
"**jj;;;;;;;;;;;;;;;;;;;;;;;jj......jj;;;;;;;;;;;;;;;;;;;;;;;jj**",
"**jj;;;;;;;;;;;;;;;;;;;;;;;jj......jj;;;;;;;;;;;;;;;;;;;;;;;jj**",
"**jj;;;;;;;;;;;;;;;;;;;;;;;aj+....$ja;;;;;;;;;;;;;;;;;;;;;;;jj**",
"**jj;;;;;;;;;;;;;;;;;;;;;;;0jf@..#jj1;;;;;;;;;;;;;;;;;;;;;;;jj**",
"**jj;;;;;;;;;;;;;;;;;;;;;;;;yjjjjjje;;;;;;;;;;;;;;;;;;;;;;;;jj**",
"**jj;;;;;;;;;;;;;;;;;;;;;;;;;7djjd7;;;;;;;;;;;;;;;;;;;;;;;;;jj**",
"**jj;;;;;;;;;;;;;;;;;;;;;;;;;;;;;;;;;;;;;;;;;;;;;;;;;;;;;;;;jj**",
"**jj;;;;;;;;;;;;;;;;;;;;;;;;;;;;;;;;;;;;;;;;;;;;;;;;;;;;;;;;jj**",
"**jj;;;;;;;;;;;;;;;;;;;;;;;;;;;;;;;;;;;;;;;;;;;;;;;;;;;;;;;;jj**",
"**jj;;;;;;;;;;;;;;;;;;;;;;;;;;;;;;;;;;;;;;;;;;;;;;;;;;;;;;;;jj**",
"**jj;;;;;;;;;;;;;;;;;;;;;;;;;;;;;;;;;;;;;;;;;;;;;;;;;;;;;;;;jj**",
"**jj;;;;;;;;;;;;;;;;;;;;;;;;;;;;;;;;;;;;;;;;;;;;;;;;;;;;;;;;jj**",
"**jj;;;;;;;;;;;;;;;;;;;;;;;;;;;;;;;;;;;;;;;;;;;;;;;;;;;;;;;;jj**",
"**jj;;;;;<<<;;;;;;;;;;;;;;;;;;;;;;;;;;;;;;;;;;;;;;;;<<<;;;;;jj**",
"**jj;;;;yjjjd;;;;;;;;;;;;;;;;;;;;;;;;;;;;;;;;;;;;;;yjjjd;;;;jj**",
"**jj;;;7jjjjj7;;;;;;;;;;;;;;;;;;;;;;;;;;;;;;;;;;;;7jjjjj7;;;jj**",
"**jj;;;0jjjjj0;;;;;;;;;;;;;;;;;;;;;;;;;;;;;;;;;;;;wjjjjjw;;;jj**",
"**jj;;;7jjjjj7;;;;;;;;;;;;;;;;;;;;;;;;;;;;;;;;;;;;7jjjjj7;;;jj**",
"**jj:;;;ajjjg:;;;;;;;;;;;;;;;;;;;;;;;;;;;;;;;;;;;;;ajjjd:;;:jj**",
"**tj1;;;:8w8:;;;;;;;;;;;;;;;;;;;;;;;;;;;;;;;;;;;;;;:808>;;;1jt*&",
"%*9jy;;;;;;;;;;;;;;;;;;;;;;;;;;;;;;;;;;;;;;;;;;;;;;;;;;;;;;yj9*%",
" *=jj7;;;;;;;;;;;;;;;;;;;;;;;;;;;;;;;;;;;;;;;;;;;;;;;;;;;;7jj=* ",
" %*9jjw>;;;;;;;;;;;;;;;;;;;;;;;;;;;;;;;;;;;;;;;;;;;;;;;;>wjj9*% ",
"  **qjjjjjjjjjjjjjjjjjjjjjjjjjjjjjjjjjjjjjjjjjjjjjjjjjjjjjjq**  ",
"  %**-rjjjjjjjjjjjjjjjjjjjjjjjjjjjjjjjjjjjjjjjjjjjjjjjjjjr-**%  ",
"    ********************************************************    ",
"     *%**************************************************%*     "
};
